<svg width="13" height="12" viewBox="0 0 13 12" fill="none" xmlns="http://www.w3.org/2000/svg">
<mask id="mask0_142_41" style="mask-type:alpha" maskUnits="userSpaceOnUse" x="0" y="0" width="13" height="12">
<rect x="0.144001" width="12" height="12" fill="#D9D9D9"/>
</mask>
<g mask="url(#mask0_142_41)">
<path d="M5.644 5C5.919 5 6.15442 4.90208 6.35025 4.70625C6.54608 4.51042 6.644 4.275 6.644 4C6.644 3.725 6.54608 3.48958 6.35025 3.29375C6.15442 3.09792 5.919 3 5.644 3C5.369 3 5.13358 3.09792 4.93775 3.29375C4.74192 3.48958 4.644 3.725 4.644 4C4.644 4.275 4.74192 4.51042 4.93775 4.70625C5.13358 4.90208 5.369 5 5.644 5ZM5.644 7C6.019 7 6.37108 6.92083 6.70025 6.7625C7.02942 6.60417 7.31483 6.37917 7.5565 6.0875C7.26483 5.89583 6.95858 5.75 6.63775 5.65C6.31692 5.55 5.98567 5.5 5.644 5.5C5.30233 5.5 4.97108 5.55 4.65025 5.65C4.32942 5.75 4.02317 5.89583 3.7315 6.0875C3.97317 6.37917 4.25858 6.60417 4.58775 6.7625C4.91692 6.92083 5.269 7 5.644 7ZM10.444 10.5L8.094 8.15C7.75233 8.41667 7.37525 8.625 6.96275 8.775C6.55025 8.925 6.11067 9 5.644 9C4.52733 9 3.5815 8.6125 2.8065 7.8375C2.0315 7.0625 1.644 6.11667 1.644 5C1.644 3.88333 2.0315 2.9375 2.8065 2.1625C3.5815 1.3875 4.52733 1 5.644 1C6.76067 1 7.7065 1.3875 8.4815 2.1625C9.2565 2.9375 9.644 3.88333 9.644 5C9.644 5.46667 9.569 5.90625 9.419 6.31875C9.269 6.73125 9.06067 7.10833 8.794 7.45L11.144 9.8L10.444 10.5ZM5.644 8C6.47733 8 7.18567 7.70833 7.769 7.125C8.35233 6.54167 8.644 5.83333 8.644 5C8.644 4.16667 8.35233 3.45833 7.769 2.875C7.18567 2.29167 6.47733 2 5.644 2C4.81067 2 4.10233 2.29167 3.519 2.875C2.93567 3.45833 2.644 4.16667 2.644 5C2.644 5.83333 2.93567 6.54167 3.519 7.125C4.10233 7.70833 4.81067 8 5.644 8Z" fill="#9DB2BF"/>
</g>
</svg>
