<svg width="83" height="12" viewBox="0 0 83 12" fill="none" xmlns="http://www.w3.org/2000/svg">
<path d="M6.06 0.600006V1.65601H3.576V9.00001H2.472V1.65601H0V0.600006H6.06Z" fill="white"/>
<path d="M14.364 2.844H15.408V8.844H14.364V7.812C13.844 8.604 13.088 9 12.096 9C11.256 9 10.54 8.696 9.948 8.088C9.356 7.472 9.06 6.724 9.06 5.844C9.06 4.964 9.356 4.22 9.948 3.612C10.54 2.996 11.256 2.688 12.096 2.688C13.088 2.688 13.844 3.084 14.364 3.876V2.844ZM12.228 7.992C12.836 7.992 13.344 7.788 13.752 7.38C14.16 6.964 14.364 6.452 14.364 5.844C14.364 5.236 14.16 4.728 13.752 4.32C13.344 3.904 12.836 3.696 12.228 3.696C11.628 3.696 11.124 3.904 10.716 4.32C10.308 4.728 10.104 5.236 10.104 5.844C10.104 6.452 10.308 6.964 10.716 7.38C11.124 7.788 11.628 7.992 12.228 7.992Z" fill="white"/>
<path d="M19.68 4.464C19.68 4.696 19.796 4.884 20.028 5.028C20.26 5.164 20.54 5.276 20.868 5.364C21.196 5.444 21.524 5.54 21.852 5.652C22.18 5.756 22.46 5.94 22.692 6.204C22.924 6.46 23.04 6.792 23.04 7.2C23.04 7.744 22.828 8.18 22.404 8.508C21.988 8.836 21.452 9 20.796 9C20.212 9 19.712 8.872 19.296 8.616C18.88 8.36 18.584 8.02 18.408 7.596L19.308 7.08C19.404 7.368 19.584 7.596 19.848 7.764C20.112 7.932 20.428 8.016 20.796 8.016C21.14 8.016 21.424 7.952 21.648 7.824C21.872 7.688 21.984 7.48 21.984 7.2C21.984 6.968 21.868 6.784 21.636 6.648C21.404 6.504 21.124 6.392 20.796 6.312C20.468 6.224 20.14 6.124 19.812 6.012C19.484 5.9 19.204 5.716 18.972 5.46C18.74 5.204 18.624 4.876 18.624 4.476C18.624 3.956 18.824 3.528 19.224 3.192C19.632 2.856 20.14 2.688 20.748 2.688C21.236 2.688 21.668 2.8 22.044 3.024C22.428 3.24 22.716 3.544 22.908 3.936L22.032 4.428C21.816 3.916 21.388 3.66 20.748 3.66C20.452 3.66 20.2 3.732 19.992 3.876C19.784 4.012 19.68 4.208 19.68 4.464Z" fill="white"/>
<path d="M31.116 9.00001H29.82L27.084 6.15601V9.00001H26.04V0.600006H27.084V5.65201L29.676 3.00001H31.02L28.152 5.90401L31.116 9.00001Z" fill="white"/>
<path d="M38.916 4.64401C39.3 4.82801 39.604 5.09201 39.828 5.43601C40.06 5.78001 40.176 6.17601 40.176 6.62401C40.176 7.29601 39.94 7.86001 39.468 8.31601C38.996 8.77201 38.42 9.00001 37.74 9.00001H34.116V0.600006H37.476C38.132 0.600006 38.688 0.820006 39.144 1.26001C39.6 1.70001 39.828 2.24401 39.828 2.89201C39.828 3.63601 39.524 4.22001 38.916 4.64401ZM37.476 1.64401H35.232V4.21201H37.476C37.828 4.21201 38.124 4.08801 38.364 3.84001C38.604 3.59201 38.724 3.28801 38.724 2.92801C38.724 2.57601 38.6 2.27601 38.352 2.02801C38.112 1.77201 37.82 1.64401 37.476 1.64401ZM37.74 7.95601C38.116 7.95601 38.432 7.82401 38.688 7.56001C38.944 7.29601 39.072 6.97201 39.072 6.58801C39.072 6.21201 38.94 5.89201 38.676 5.62801C38.42 5.36401 38.108 5.23201 37.74 5.23201H35.232V7.95601H37.74Z" fill="white"/>
<path d="M48.48 2.844H49.524V8.844H48.48V7.812C47.96 8.604 47.204 9 46.212 9C45.372 9 44.656 8.696 44.064 8.088C43.472 7.472 43.176 6.724 43.176 5.844C43.176 4.964 43.472 4.22 44.064 3.612C44.656 2.996 45.372 2.688 46.212 2.688C47.204 2.688 47.96 3.084 48.48 3.876V2.844ZM46.344 7.992C46.952 7.992 47.46 7.788 47.868 7.38C48.276 6.964 48.48 6.452 48.48 5.844C48.48 5.236 48.276 4.728 47.868 4.32C47.46 3.904 46.952 3.696 46.344 3.696C45.744 3.696 45.24 3.904 44.832 4.32C44.424 4.728 44.22 5.236 44.22 5.844C44.22 6.452 44.424 6.964 44.832 7.38C45.24 7.788 45.744 7.992 46.344 7.992Z" fill="white"/>
<path d="M53.952 8.004H57.144V9H52.524V8.304L55.584 3.996H52.644V3H57.024V3.696L53.952 8.004Z" fill="white"/>
<mask id="mask0_140_97" style="mask-type:alpha" maskUnits="userSpaceOnUse" x="58" y="0" width="13" height="12">
<rect x="58.144" width="12" height="12" fill="#D9D9D9"/>
</mask>
<g mask="url(#mask0_140_97)">
<path d="M63.644 5C63.919 5 64.1544 4.90208 64.3503 4.70625C64.5461 4.51042 64.644 4.275 64.644 4C64.644 3.725 64.5461 3.48958 64.3503 3.29375C64.1544 3.09792 63.919 3 63.644 3C63.369 3 63.1336 3.09792 62.9378 3.29375C62.7419 3.48958 62.644 3.725 62.644 4C62.644 4.275 62.7419 4.51042 62.9378 4.70625C63.1336 4.90208 63.369 5 63.644 5ZM63.644 7C64.019 7 64.3711 6.92083 64.7003 6.7625C65.0294 6.60417 65.3148 6.37917 65.5565 6.0875C65.2648 5.89583 64.9586 5.75 64.6378 5.65C64.3169 5.55 63.9857 5.5 63.644 5.5C63.3023 5.5 62.9711 5.55 62.6503 5.65C62.3294 5.75 62.0232 5.89583 61.7315 6.0875C61.9732 6.37917 62.2586 6.60417 62.5878 6.7625C62.9169 6.92083 63.269 7 63.644 7ZM68.444 10.5L66.094 8.15C65.7523 8.41667 65.3753 8.625 64.9628 8.775C64.5503 8.925 64.1107 9 63.644 9C62.5273 9 61.5815 8.6125 60.8065 7.8375C60.0315 7.0625 59.644 6.11667 59.644 5C59.644 3.88333 60.0315 2.9375 60.8065 2.1625C61.5815 1.3875 62.5273 1 63.644 1C64.7607 1 65.7065 1.3875 66.4815 2.1625C67.2565 2.9375 67.644 3.88333 67.644 5C67.644 5.46667 67.569 5.90625 67.419 6.31875C67.269 6.73125 67.0607 7.10833 66.794 7.45L69.144 9.8L68.444 10.5ZM63.644 8C64.4773 8 65.1857 7.70833 65.769 7.125C66.3523 6.54167 66.644 5.83333 66.644 5C66.644 4.16667 66.3523 3.45833 65.769 2.875C65.1857 2.29167 64.4773 2 63.644 2C62.8107 2 62.1023 2.29167 61.519 2.875C60.9357 3.45833 60.644 4.16667 60.644 5C60.644 5.83333 60.9357 6.54167 61.519 7.125C62.1023 7.70833 62.8107 8 63.644 8Z" fill="#9DB2BF"/>
</g>
<path d="M75.448 2.844H76.492V8.844H75.448V7.812C74.928 8.604 74.172 9 73.18 9C72.34 9 71.624 8.696 71.032 8.088C70.44 7.472 70.144 6.724 70.144 5.844C70.144 4.964 70.44 4.22 71.032 3.612C71.624 2.996 72.34 2.688 73.18 2.688C74.172 2.688 74.928 3.084 75.448 3.876V2.844ZM73.312 7.992C73.92 7.992 74.428 7.788 74.836 7.38C75.244 6.964 75.448 6.452 75.448 5.844C75.448 5.236 75.244 4.728 74.836 4.32C74.428 3.904 73.92 3.696 73.312 3.696C72.712 3.696 72.208 3.904 71.8 4.32C71.392 4.728 71.188 5.236 71.188 5.844C71.188 6.452 71.392 6.964 71.8 7.38C72.208 7.788 72.712 7.992 73.312 7.992Z" fill="white"/>
<path d="M80.536 4.008C80.88 3.264 81.504 2.892 82.408 2.892V3.984C81.896 3.96 81.456 4.096 81.088 4.392C80.72 4.688 80.536 5.164 80.536 5.82V9H79.492V3H80.536V4.008Z" fill="white"/>
</svg>
